@startuml
hide footbox

title Adapter Pattern - SoundPlayer to ThirdPartySoundLibrary

interface SoundPlayer {
    {abstract} +playSound(sound: String): void
}

class ThirdPartySoundLibrary {
    +play(soundFile: String): void
}

class SoundAdapter {
    -thirdPartyLibrary: ThirdPartySoundLibrary
    +SoundAdapter(thirdPartyLibrary: ThirdPartySoundLibrary)
    +playSound(sound: String): void
}

SoundPlayer <|.. SoundAdapter
SoundAdapter *-- ThirdPartySoundLibrary

@enduml
